<svg width="180" height="180" xmlns="http://www.w3.org/2000/svg">
 <g>
  <title>Layer 1</title>
  <g id="Background">
   <path id="svg_6" d="m8,90.160034c0,-45.379883 36.780029,-82.160034 82.159912,-82.160034c45.380127,0 82.160156,36.780151 82.160156,82.160034c0,45.370117 -36.780029,82.159912 -82.160156,82.159912c-45.379883,0 -82.159912,-36.789795 -82.159912,-82.159912z" stroke-miterlimit="10" stroke-linejoin="round" stroke-linecap="round" stroke-width="14.0032" stroke="#C73E00" fill="#FF9464" clip-rule="evenodd" fill-rule="evenodd"/>
   <g id="svg_7">
    <polygon id="svg_8" points="43.719970703125,118.7401123046875 43.719970703125,104.4500732421875 58.010009765625,104.4500732421875 58.010009765625,97.3001708984375 43.719970703125,97.3001708984375 43.719970703125,83.0101318359375 36.580078125,83.0101318359375 36.580078125,97.3001708984375 22.2900390625,97.3001708984375 22.2900390625,104.4500732421875 36.580078125,104.4500732421875 36.580078125,118.7401123046875 " fill="#CA4600" clip-rule="evenodd" fill-rule="evenodd"/>
   </g>
   <g id="svg_9">
    <path id="svg_10" d="m100.72998,98.210083c5.359863,1.560059 9.209961,3.5 11.52002,5.840088c2.320068,2.349854 3.48999,5.459961 3.48999,9.319824c0,4.530029 -1.419922,8.340088 -4.25,11.420166c-2.830078,3.079834 -6.409912,4.879883 -10.76001,5.379883v-31.959961l0,0zm-7,-14.350098c-5.469971,-1.579834 -9.169922,-3.5 -11.110107,-5.780029c-1.939941,-2.27002 -2.889893,-5.099854 -2.889893,-8.469971c0,-3.409912 1.25,-6.349854 3.75,-8.849854c2.5,-2.48999 5.909912,-4.02002 10.25,-4.610107v27.709961l0,0zm7,69.310059v-12c7.969971,-0.379883 14.459961,-3.189941 19.47998,-8.459961c5.01001,-5.26001 7.530029,-11.840088 7.530029,-19.73999c0,-3.560059 -0.610107,-6.890137 -1.810059,-9.969971c-1.209961,-3.070068 -2.919922,-5.72998 -5.159912,-7.969971c-2.22998,-2.22998 -5.130127,-4.120117 -8.660156,-5.690186c-1.859863,-0.789795 -5.659912,-1.949951 -11.379883,-3.449951v-28.73999c3.719971,0.659912 6.649902,2.030029 8.790039,4.090088c2.119873,2.069824 3.530029,5.040039 4.219971,8.909912l12,-2c-1.030029,-7.25 -4.050049,-12.969971 -9.080078,-17.139893c-3.939941,-3.27002 -9.23999,-5.219971 -15.929932,-5.860107v-5h-7v5c-7.659912,0.72998 -13.419922,2.719971 -17.300049,5.969971c-5.810059,4.840088 -8.699951,11.170166 -8.699951,18.969971c0,4.410156 0.949951,8.330078 2.889893,11.780029c1.920166,3.459961 4.670166,6.160156 8.22998,8.100098c4.800049,2.659912 9.76001,4.719971 14.880127,6.199951v34c-4.419922,-0.409912 -8.219971,-2.429932 -11.370117,-6.02002c-2.219971,-2.550049 -3.76001,-6.550049 -4.629883,-11.98999l-12,2c0.419922,5.969971 1.949951,11.040039 4.580078,15.159912c2.619873,4.140137 5.72998,7.140137 9.339844,8.98999c3.610107,1.840088 8.300049,3.120117 14.080078,3.860107v11h7l0,0z" fill="#CA4600" clip-rule="evenodd" fill-rule="evenodd"/>
   </g>
  </g>
 </g>
</svg>